<mxfile host="app.diagrams.net" modified="2024-06-19T12:18:10.956Z" agent="Mozilla/5.0 (Windows NT 10.0; Win64; x64) AppleWebKit/537.36 (KHTML, like Gecko) Chrome/121.0.0.0 Safari/537.36" etag="hgW3NNk2fnE5jCNNde33" version="24.5.5" type="device">
  <diagram name="Página-1" id="HEzhWErQOokbtbT3r-zJ">
    <mxGraphModel dx="1434" dy="782" grid="1" gridSize="10" guides="1" tooltips="1" connect="1" arrows="1" fold="1" page="1" pageScale="1" pageWidth="827" pageHeight="1169" math="0" shadow="0">
      <root>
        <mxCell id="0" />
        <mxCell id="1" parent="0" />
        <mxCell id="Zw0ZON3lcNGbOcBXJm0r-1" value="PESSOA" style="swimlane;fontStyle=0;childLayout=stackLayout;horizontal=1;startSize=30;horizontalStack=0;resizeParent=1;resizeParentMax=0;resizeLast=0;collapsible=1;marginBottom=0;whiteSpace=wrap;html=1;fillColor=#fff2cc;strokeColor=#d6b656;" parent="1" vertex="1">
          <mxGeometry x="110" y="60" width="140" height="120" as="geometry" />
        </mxCell>
        <mxCell id="Zw0ZON3lcNGbOcBXJm0r-2" value="-Nome&lt;div&gt;-Telefone&lt;/div&gt;&lt;div&gt;&lt;br&gt;&lt;/div&gt;&lt;div&gt;&lt;br&gt;&lt;/div&gt;&lt;div&gt;&lt;br&gt;&lt;/div&gt;&lt;div&gt;&lt;br&gt;&lt;/div&gt;&lt;div&gt;&lt;br&gt;&lt;/div&gt;&lt;div&gt;&lt;br&gt;&lt;/div&gt;&lt;div&gt;&lt;br&gt;&lt;/div&gt;&lt;div&gt;&lt;br&gt;&lt;/div&gt;&lt;div&gt;&lt;br&gt;&lt;/div&gt;" style="text;strokeColor=#d6b656;fillColor=#fff2cc;align=left;verticalAlign=middle;spacingLeft=4;spacingRight=4;overflow=hidden;points=[[0,0.5],[1,0.5]];portConstraint=eastwest;rotatable=0;whiteSpace=wrap;html=1;" parent="Zw0ZON3lcNGbOcBXJm0r-1" vertex="1">
          <mxGeometry y="30" width="140" height="30" as="geometry" />
        </mxCell>
        <mxCell id="Zw0ZON3lcNGbOcBXJm0r-3" value="+SetNome&lt;div&gt;+GetNome&lt;/div&gt;&lt;div&gt;+SetTelefone&lt;/div&gt;&lt;div&gt;+GetTelefone&lt;/div&gt;" style="text;strokeColor=#d6b656;fillColor=#fff2cc;align=left;verticalAlign=middle;spacingLeft=4;spacingRight=4;overflow=hidden;points=[[0,0.5],[1,0.5]];portConstraint=eastwest;rotatable=0;whiteSpace=wrap;html=1;" parent="Zw0ZON3lcNGbOcBXJm0r-1" vertex="1">
          <mxGeometry y="60" width="140" height="60" as="geometry" />
        </mxCell>
        <mxCell id="Zw0ZON3lcNGbOcBXJm0r-5" value="CLIENTE" style="swimlane;fontStyle=0;childLayout=stackLayout;horizontal=1;startSize=30;horizontalStack=0;resizeParent=1;resizeParentMax=0;resizeLast=0;collapsible=1;marginBottom=0;whiteSpace=wrap;html=1;fillColor=#fff2cc;strokeColor=#d6b656;" parent="1" vertex="1">
          <mxGeometry x="90" y="220" width="140" height="110" as="geometry" />
        </mxCell>
        <mxCell id="Zw0ZON3lcNGbOcBXJm0r-6" value="-CPF" style="text;strokeColor=#d6b656;fillColor=#fff2cc;align=left;verticalAlign=middle;spacingLeft=4;spacingRight=4;overflow=hidden;points=[[0,0.5],[1,0.5]];portConstraint=eastwest;rotatable=0;whiteSpace=wrap;html=1;" parent="Zw0ZON3lcNGbOcBXJm0r-5" vertex="1">
          <mxGeometry y="30" width="140" height="30" as="geometry" />
        </mxCell>
        <mxCell id="Zw0ZON3lcNGbOcBXJm0r-7" value="+GetCPF&lt;div&gt;+SetCPF&lt;/div&gt;" style="text;strokeColor=#d6b656;fillColor=#fff2cc;align=left;verticalAlign=middle;spacingLeft=4;spacingRight=4;overflow=hidden;points=[[0,0.5],[1,0.5]];portConstraint=eastwest;rotatable=0;whiteSpace=wrap;html=1;" parent="Zw0ZON3lcNGbOcBXJm0r-5" vertex="1">
          <mxGeometry y="60" width="140" height="50" as="geometry" />
        </mxCell>
        <mxCell id="Zw0ZON3lcNGbOcBXJm0r-9" value="FORNECEDOR" style="swimlane;fontStyle=0;childLayout=stackLayout;horizontal=1;startSize=30;horizontalStack=0;resizeParent=1;resizeParentMax=0;resizeLast=0;collapsible=1;marginBottom=0;whiteSpace=wrap;html=1;fillColor=#fff2cc;strokeColor=#d6b656;" parent="1" vertex="1">
          <mxGeometry x="260" y="220" width="140" height="130" as="geometry" />
        </mxCell>
        <mxCell id="Zw0ZON3lcNGbOcBXJm0r-10" value="-Nome&lt;br&gt;-Telefone" style="text;strokeColor=#d6b656;fillColor=#fff2cc;align=left;verticalAlign=middle;spacingLeft=4;spacingRight=4;overflow=hidden;points=[[0,0.5],[1,0.5]];portConstraint=eastwest;rotatable=0;whiteSpace=wrap;html=1;" parent="Zw0ZON3lcNGbOcBXJm0r-9" vertex="1">
          <mxGeometry y="30" width="140" height="30" as="geometry" />
        </mxCell>
        <mxCell id="Zw0ZON3lcNGbOcBXJm0r-11" value="+SetNome&lt;br&gt;+GetNome&lt;br&gt;+SetTelefone&lt;br&gt;+GetTelefone" style="text;strokeColor=#d6b656;fillColor=#fff2cc;align=left;verticalAlign=middle;spacingLeft=4;spacingRight=4;overflow=hidden;points=[[0,0.5],[1,0.5]];portConstraint=eastwest;rotatable=0;whiteSpace=wrap;html=1;" parent="Zw0ZON3lcNGbOcBXJm0r-9" vertex="1">
          <mxGeometry y="60" width="140" height="70" as="geometry" />
        </mxCell>
        <mxCell id="Zw0ZON3lcNGbOcBXJm0r-12" value="" style="endArrow=classic;html=1;rounded=0;exitX=0.986;exitY=1.017;exitDx=0;exitDy=0;exitPerimeter=0;entryX=0.3;entryY=-0.008;entryDx=0;entryDy=0;entryPerimeter=0;" parent="1" source="Zw0ZON3lcNGbOcBXJm0r-3" target="Zw0ZON3lcNGbOcBXJm0r-9" edge="1">
          <mxGeometry width="50" height="50" relative="1" as="geometry">
            <mxPoint x="390" y="430" as="sourcePoint" />
            <mxPoint x="440" y="380" as="targetPoint" />
          </mxGeometry>
        </mxCell>
        <mxCell id="Zw0ZON3lcNGbOcBXJm0r-13" value="" style="endArrow=classic;html=1;rounded=0;exitX=0.25;exitY=1;exitDx=0;exitDy=0;entryX=0.5;entryY=0;entryDx=0;entryDy=0;" parent="1" source="Zw0ZON3lcNGbOcBXJm0r-1" target="Zw0ZON3lcNGbOcBXJm0r-5" edge="1">
          <mxGeometry width="50" height="50" relative="1" as="geometry">
            <mxPoint x="390" y="430" as="sourcePoint" />
            <mxPoint x="440" y="380" as="targetPoint" />
          </mxGeometry>
        </mxCell>
        <mxCell id="GCIBaAucerW2UH8VZsLm-1" value="COSTURA" style="swimlane;fontStyle=0;childLayout=stackLayout;horizontal=1;startSize=30;horizontalStack=0;resizeParent=1;resizeParentMax=0;resizeLast=0;collapsible=1;marginBottom=0;whiteSpace=wrap;html=1;fillColor=#fff2cc;strokeColor=#d6b656;" vertex="1" parent="1">
          <mxGeometry x="630" y="80" width="140" height="330" as="geometry" />
        </mxCell>
        <mxCell id="GCIBaAucerW2UH8VZsLm-2" value="-Peças&lt;div&gt;-Bolso&lt;/div&gt;&lt;div&gt;-Passador&lt;/div&gt;&lt;div&gt;-Gancho Frontal&lt;br&gt;-Gancho Traseiro&lt;/div&gt;&lt;div&gt;-Bocas&lt;/div&gt;" style="text;strokeColor=#d6b656;fillColor=#fff2cc;align=left;verticalAlign=middle;spacingLeft=4;spacingRight=4;overflow=hidden;points=[[0,0.5],[1,0.5]];portConstraint=eastwest;rotatable=0;whiteSpace=wrap;html=1;" vertex="1" parent="GCIBaAucerW2UH8VZsLm-1">
          <mxGeometry y="30" width="140" height="120" as="geometry" />
        </mxCell>
        <mxCell id="GCIBaAucerW2UH8VZsLm-3" value="+SetBolso&lt;div&gt;+GetBolso&lt;br&gt;&lt;div&gt;+SetBocas&lt;br&gt;+GetBocas&lt;/div&gt;&lt;/div&gt;&lt;div&gt;+SetGanchoFrontal&lt;/div&gt;&lt;div&gt;+GetGanchoFrontal&lt;/div&gt;&lt;div&gt;+SetGanchoTraseiro&lt;/div&gt;&lt;div&gt;+GetGanchoTraseiro&lt;/div&gt;&lt;div&gt;+SetPassador&lt;/div&gt;&lt;div&gt;+GetPassador&lt;/div&gt;&lt;div&gt;+Juntar&lt;/div&gt;" style="text;strokeColor=#d6b656;fillColor=#fff2cc;align=left;verticalAlign=middle;spacingLeft=4;spacingRight=4;overflow=hidden;points=[[0,0.5],[1,0.5]];portConstraint=eastwest;rotatable=0;whiteSpace=wrap;html=1;" vertex="1" parent="GCIBaAucerW2UH8VZsLm-1">
          <mxGeometry y="150" width="140" height="180" as="geometry" />
        </mxCell>
        <mxCell id="GCIBaAucerW2UH8VZsLm-5" value="CORTE" style="swimlane;fontStyle=0;childLayout=stackLayout;horizontal=1;startSize=30;horizontalStack=0;resizeParent=1;resizeParentMax=0;resizeLast=0;collapsible=1;marginBottom=0;whiteSpace=wrap;html=1;fillColor=#fff2cc;strokeColor=#d6b656;" vertex="1" parent="1">
          <mxGeometry x="440" y="60" width="140" height="190" as="geometry" />
        </mxCell>
        <mxCell id="GCIBaAucerW2UH8VZsLm-6" value="-Corte&lt;div&gt;-Estilo&lt;/div&gt;&lt;div&gt;-Tecido&lt;/div&gt;&lt;div&gt;-Peças&lt;/div&gt;" style="text;strokeColor=#d6b656;fillColor=#fff2cc;align=left;verticalAlign=middle;spacingLeft=4;spacingRight=4;overflow=hidden;points=[[0,0.5],[1,0.5]];portConstraint=eastwest;rotatable=0;whiteSpace=wrap;html=1;" vertex="1" parent="GCIBaAucerW2UH8VZsLm-5">
          <mxGeometry y="30" width="140" height="60" as="geometry" />
        </mxCell>
        <mxCell id="GCIBaAucerW2UH8VZsLm-7" value="+SetTecido&lt;div&gt;+GetCorte&lt;/div&gt;&lt;div&gt;+SetTelefone&lt;/div&gt;&lt;div&gt;+SalvarCorte&lt;/div&gt;&lt;div&gt;GetPeças&lt;br&gt;SetPeças&lt;/div&gt;" style="text;strokeColor=#d6b656;fillColor=#fff2cc;align=left;verticalAlign=middle;spacingLeft=4;spacingRight=4;overflow=hidden;points=[[0,0.5],[1,0.5]];portConstraint=eastwest;rotatable=0;whiteSpace=wrap;html=1;" vertex="1" parent="GCIBaAucerW2UH8VZsLm-5">
          <mxGeometry y="90" width="140" height="100" as="geometry" />
        </mxCell>
        <mxCell id="GCIBaAucerW2UH8VZsLm-8" value="DESPACHE" style="swimlane;fontStyle=0;childLayout=stackLayout;horizontal=1;startSize=30;horizontalStack=0;resizeParent=1;resizeParentMax=0;resizeLast=0;collapsible=1;marginBottom=0;whiteSpace=wrap;html=1;fillColor=#fff2cc;strokeColor=#d6b656;" vertex="1" parent="1">
          <mxGeometry x="130" y="390" width="160" height="370" as="geometry" />
        </mxCell>
        <mxCell id="GCIBaAucerW2UH8VZsLm-9" value="-PedidoID&lt;div&gt;-Cliente&lt;/div&gt;&lt;div&gt;-EnderecoEntrega&lt;/div&gt;&lt;div&gt;-Status&lt;/div&gt;&lt;div&gt;-idItem&lt;/div&gt;&lt;div&gt;-produto&lt;br&gt;-Qt&lt;/div&gt;&lt;div&gt;-peso&lt;br&gt;&lt;/div&gt;&lt;div&gt;-idDespacho&lt;br&gt;-pedido&lt;br&gt;&lt;/div&gt;&lt;div&gt;-transportadora&lt;br&gt;&lt;/div&gt;&lt;div&gt;-dataDespacho&lt;br&gt;&lt;/div&gt;" style="text;strokeColor=#d6b656;fillColor=#fff2cc;align=left;verticalAlign=middle;spacingLeft=4;spacingRight=4;overflow=hidden;points=[[0,0.5],[1,0.5]];portConstraint=eastwest;rotatable=0;whiteSpace=wrap;html=1;" vertex="1" parent="GCIBaAucerW2UH8VZsLm-8">
          <mxGeometry y="30" width="160" height="240" as="geometry" />
        </mxCell>
        <mxCell id="GCIBaAucerW2UH8VZsLm-10" value="+ConfimarPedido&lt;div&gt;+GetStatus&lt;/div&gt;&lt;div&gt;+despacharPedido&lt;/div&gt;&lt;div&gt;+atualizarStatusDespacho&lt;/div&gt;" style="text;strokeColor=#d6b656;fillColor=#fff2cc;align=left;verticalAlign=middle;spacingLeft=4;spacingRight=4;overflow=hidden;points=[[0,0.5],[1,0.5]];portConstraint=eastwest;rotatable=0;whiteSpace=wrap;html=1;" vertex="1" parent="GCIBaAucerW2UH8VZsLm-8">
          <mxGeometry y="270" width="160" height="100" as="geometry" />
        </mxCell>
      </root>
    </mxGraphModel>
  </diagram>
</mxfile>
